PathFileType	4	(X/Y/Z)	D:\TRACE\v60_Jaco2_6-2-23\JustArmDRS_Motion1_4-platform.trc
DataRate	CameraRate	NumFrames	NumMarkers	Units	OrigDataRate	OrigDataStartFrame	OrigNumFrames
100.00	100.00	      36	5	mm	100.00	5961	      6812
Frame#	Time	Left_Front			Right_Front			Left_Aft			Right_Aft			Post			
		X1	Y1	Z1	X2	Y2	Z2	X3	Y3	Z3	X4	Y4	Z4	X5	Y5	Z5	

5961	59.600	-832.06232	31.05588	-632.99689	737.94684	31.68569	-638.30341	-740.39545	-7.09992	501.76065	702.42590	-9.13721	511.12143	-45.00428	1339.93604	-912.60205	
5962	59.610	-832.59790	31.26657	-632.55219	736.80652	32.20840	-638.31158	-741.23877	-7.25816	501.76437	701.45514	-9.38472	511.20129	-46.06768	1340.52673	-911.68579	
5963	59.620	-833.86542	31.80902	-632.72772	736.39465	32.55338	-638.09741	-742.34821	-7.49724	501.78668	700.36932	-9.74576	511.43665	-46.55938	1341.08325	-911.09125	
5964	59.630	-834.62781	32.01771	-632.69635	735.66217	32.93043	-638.13702	-742.92291	-7.75680	501.89444	699.85480	-9.98493	511.50836	-47.60226	1341.70398	-910.35266	
5965	59.640	-835.09369	32.35880	-632.39685	734.59705	33.36235	-637.97870	-743.65259	-8.00487	502.00516	699.02075	-10.12407	511.61267	-48.14456	1342.07922	-909.68970	
5966	59.650	-835.81219	32.90374	-632.04401	733.75903	33.66134	-637.72089	-744.55872	-8.26141	502.16605	698.06519	-10.39126	511.77066	-48.67125	1342.50769	-909.02692	
5967	59.660	-836.81097	33.15126	-632.00977	733.32727	33.91771	-637.75372	-745.32831	-8.40457	502.35507	697.58368	-10.75399	511.66544	-49.89034	1342.87976	-908.42157	
5968	59.670	-837.76935	33.70159	-632.17200	732.57892	34.27816	-637.74097	-745.91284	-8.64930	502.36621	696.85083	-10.92310	511.84009	-50.60624	1343.31873	-907.63214	
5969	59.680	-838.38470	33.94724	-632.23065	731.86615	34.66848	-637.37848	-746.69379	-8.89497	502.36444	695.87085	-11.15610	511.93478	-50.87885	1343.91003	-906.66608	
5970	59.690	-838.99371	34.28772	-632.25311	730.87512	34.91724	-637.38855	-747.64526	-9.13171	502.41483	695.28217	-11.39372	511.92383	-51.75827	1344.60620	-905.57770	
5971	59.700	-839.75677	34.77544	-631.83636	730.23370	35.29169	-637.30646	-748.25330	-9.30786	502.49316	694.52802	-11.55856	512.08661	-52.52463	1344.93909	-905.03094	
5972	59.710	-840.41339	34.99411	-631.60126	729.80652	35.48753	-637.34637	-748.98975	-9.45346	502.65048	693.80524	-11.83761	512.05042	-53.30925	1345.48621	-903.86560	
5973	59.720	-840.89081	35.24518	-631.62201	729.18463	35.73433	-637.11981	-749.56323	-9.59324	502.75510	693.30090	-12.08424	512.09479	-53.71000	1345.77808	-903.11298	
5974	59.730	-841.75623	35.58152	-631.66772	728.25397	36.21223	-637.02777	-750.41144	-9.78574	502.87939	692.59161	-12.33338	512.15204	-54.47046	1346.04065	-902.33075	
5975	59.740	-842.38635	35.88496	-631.71942	727.52161	36.53054	-637.03467	-751.00598	-10.05386	502.89212	691.79181	-12.53358	512.50616	-55.29801	1346.65881	-901.90338	
5976	59.750	-843.04224	36.18659	-631.46484	727.08057	36.72274	-636.91406	-751.49792	-10.22202	502.97006	690.95410	-12.74292	512.60486	-55.68666	1347.13098	-901.28833	
5977	59.760	-843.72742	36.40940	-631.14264	726.52856	36.97371	-636.83685	-752.24628	-10.49683	503.02731	690.64093	-13.05777	512.45398	-56.24870	1347.58264	-900.73132	
5978	59.770	-844.19116	36.61395	-631.04932	725.84869	37.35095	-636.84082	-752.91852	-10.69514	503.14651	690.11865	-13.22242	512.45685	-56.84553	1347.96191	-900.38538	
5979	59.780	-844.63245	36.82501	-631.10144	725.22351	37.62191	-636.68610	-753.30383	-10.87376	503.24585	689.66528	-13.39851	512.49255	-57.41280	1348.24158	-899.65485	
5980	59.790	-845.05042	37.05675	-630.99707	724.69452	37.73882	-636.65527	-753.86200	-11.06170	503.32224	688.50677	-13.57698	512.75214	-58.07168	1348.55737	-899.13141	
5981	59.800	-845.89594	37.50185	-631.09680	724.03412	38.02665	-636.61359	-754.38757	-11.21424	503.28656	688.01831	-13.73711	512.84729	-58.37193	1348.88306	-898.75629	
5982	59.810	-846.40021	37.74846	-630.90491	723.61884	38.28836	-636.42737	-754.36853	-11.85556	503.10925	687.73267	-13.93843	512.60822	-59.06352	1349.24927	-897.73492	
5983	59.820	-846.92297	38.29870	-630.99506	723.12213	38.49705	-636.35168	-754.92303	-11.97833	503.08832	687.44000	-14.15993	512.83258	-59.50136	1349.63416	-897.20380	
5984	59.830	-847.27075	38.58384	-630.89996	722.84851	38.68731	-636.28052	-755.42249	-12.15105	503.06088	687.09869	-14.35888	512.76178	-59.99723	1349.97583	-896.46283	
5985	59.840	-847.65533	38.36219	-630.75330	722.44965	38.80999	-636.37158	-755.72021	-12.24543	503.14157	686.53778	-14.49868	512.74622	-60.59938	1350.28137	-895.97906	
5986	59.850	-848.16626	38.56166	-630.78516	721.86493	39.13461	-636.27594	-756.16089	-12.35953	503.15585	685.84839	-14.62251	512.94812	-61.04642	1350.72437	-895.58429	
5987	59.860	-848.43127	38.74093	-630.63300	721.38275	39.37961	-636.26178	-756.78680	-12.54794	503.09921	685.48187	-14.80207	512.98737	-61.21708	1350.92297	-895.16327	
5988	59.870	-848.71564	38.97805	-630.61212	720.95337	39.56507	-636.04865	-756.59814	-13.25287	503.20209	685.23230	-14.93008	513.03607	-61.59052	1351.17395	-894.61444	
5989	59.880	-849.09070	39.20496	-630.62634	720.68250	39.75173	-635.85699	-756.87726	-13.29603	503.21561	685.11957	-15.06115	513.02875	-61.69070	1351.46179	-894.32086	
5990	59.890	-849.60675	39.46348	-630.54907	720.53381	39.83434	-635.80603	-757.19830	-13.35209	503.27316	684.92151	-15.18069	513.05341	-61.79935	1351.72974	-894.14093	
5991	59.900	-849.90845	39.61653	-630.43433	720.32141	39.97217	-635.77856	-757.43054	-13.48957	503.32126	684.70892	-15.35685	513.06659	-62.31764	1351.95349	-893.80005	
5992	59.910	-850.00519	39.81687	-630.23462	720.17505	40.26702	-635.68976	-757.67212	-13.60702	503.33713	684.35510	-15.55033	513.11786	-62.95991	1352.14539	-893.07422	
5993	59.920	-850.28027	40.00329	-630.41461	719.85913	40.45240	-635.73022	-757.90442	-13.67221	503.40411	684.04132	-15.70115	513.12561	-62.99103	1352.40222	-892.60187	
5994	59.930	-850.31567	40.18986	-630.28870	719.85718	40.57658	-635.59424	-758.08911	-13.80616	503.39478	683.87769	-15.76115	513.11658	-62.99619	1352.60144	-892.34845	
5995	59.940	-850.52911	40.19821	-630.29272	719.70209	40.73311	-635.59534	-758.28247	-13.90389	503.38388	683.68488	-15.82651	513.15271	-62.96233	1352.78857	-891.92206	
5996	59.950	-850.50952	40.34950	-630.36780	719.55048	40.91195	-635.55591	-758.37604	-13.98848	503.38065	683.58838	-15.87543	513.15271	-63.06618	1352.91931	-891.62781	
